<?xml version="1.0" encoding="UTF-8"?>
<svg width="82px" height="69px" viewBox="0 0 82 69" version="1.1" xmlns="http://www.w3.org/2000/svg" xmlns:xlink="http://www.w3.org/1999/xlink">
    <title>onthesea</title>
    <g id="Page-1" stroke="none" stroke-width="1" fill="none" fill-rule="evenodd">
        <g id="onthesea" transform="translate(0.537517, 3.000000)" stroke="#979797">
            <g id="square" transform="translate(2.376018, 7.081867)" stroke-width="5">
                <path d="M1.13686838e-13,24.4181335 L1.13686838e-13,50.9320468 C0.188947781,53.7923927 1.17102801,55.5573868 2.9462407,56.2270291 L37.7523356,56.2963268" id="bottomleft"></path>
                <path d="M3.75397921,-3.64441876 L3.64441876,24.2465653 C3.77113543,27.1164299 4.42976149,28.8872975 5.62029696,29.5591682 L29.6444188,29.6444188" id="topleft" transform="translate(16.644419, 13.000000) rotate(90.000000) translate(-16.644419, -13.000000) "></path>
                <path d="M31.8904395,0.109560452 L31.8904395,26.529548 C32.1048831,29.3797611 33.2194811,31.1385027 35.2342334,31.8057728 L75.8904395,31.8904395" id="topright" transform="translate(53.890440, 16.000000) rotate(180.000000) translate(-53.890440, -16.000000) "></path>
                <path d="M37.784678,31.0573395 L37.6751184,50.9818988 C37.8599752,53.857312 38.8207893,55.6316035 40.5575606,56.3047732 L75.9999991,56.3047732" id="bottomright" transform="translate(56.837559, 43.681056) scale(-1, 1) translate(-56.837559, -43.681056) "></path>
            </g>
            <polyline id="handle" stroke-width="5" points="24.7664798 6.74258034 30.266458 -1.42108547e-14 50.1272634 -1.42108547e-14 55.2135772 6.74258034"></polyline>
            <path d="M2.91973149,55.3363686 C3.5720681,55.2077649 6.83777093,54.206091 8.08763945,53.0380816 C12.3167624,49.9285597 16.3038955,48.5442746 20.0490388,48.8852266 C21.8283952,49.0472164 23.5718579,50.4504086 23.5902755,50.4568477 C24.3766317,51.2756111 25.8064001,52.4096331 27.8795806,53.8589137 C30.907142,55.7953715 34.5106868,57.4615208 40.8183956,57.5363268 C43.7850051,57.6015436 48.676091,56.5715652 52.7916285,54.0343903 C55.9357482,52.0960817 58.6419396,48.8960355 59.8657195,46.9987686 C66.367568,35.9832883 61.0183239,26.1485616 58.9123341,23.6993829 C57.3606836,21.5268826 55.5619361,19.7861416 53.5160918,18.4771599 C51.3747082,17.1070499 50.5209229,16.5283257 46.9126334,15.3713645 C44.507107,14.6000571 41.7182697,14.3211492 38.5461215,14.5346408 C36.1960617,14.7284791 33.8052807,15.1546847 31.2784099,16.3574593 C25.2484733,18.9404658 22.6174037,22.6802201 21.264538,24.7356923 C19.644565,26.8084281 17.7564602,32.5026242 18.1092106,36.0033825" id="longwave" stroke-width="4"></path>
            <circle id="Oval" fill="#979797" cx="67.9624827" cy="17.5" r="3"></circle>
            <path d="M0,43.960765 C0.926267457,43.9746437 3.40714709,44.3945609 5.79070145,42.5424258 C14.0037384,36.1605057 21.7515661,36.2847133 29.0341847,42.9150489 C33.0766635,47.181121 39.4000138,47.3623899 42.8554021,44.6777087 C51.4223023,38.0216127 43.4279624,29.1108241 37.9253243,29.2121849" id="shortwave" stroke-width="5"></path>
        </g>
    </g>
</svg>